<svg width="31" height="30" viewBox="0 0 31 30" fill="none" xmlns="http://www.w3.org/2000/svg">
<path d="M29.4893 13.6821L22.5901 7.5235V3.32898C22.6268 2.48832 22.3616 1.66579 21.8528 1.04175C21.3439 0.417708 20.6328 0.043078 19.8754 0H2.77734C2.02528 0.051532 1.32179 0.429826 0.819285 1.05293C0.316777 1.67603 0.0557131 2.49377 0.0926502 3.32898V19.9739C0.07873 20.6349 0.242474 21.2855 0.563011 21.8428C0.883547 22.4001 1.34636 22.8389 1.89244 23.1031C1.61623 23.8531 1.50858 24.6663 1.57878 25.4727C1.64898 26.2791 1.89493 27.0545 2.2954 27.7319C2.69588 28.4092 3.23885 28.9683 3.87747 29.3608C4.51608 29.7533 5.23116 29.9675 5.96101 29.9849C6.69086 30.0022 7.41355 29.8222 8.06673 29.4604C8.71992 29.0986 9.28397 28.5659 9.71022 27.9082C10.1365 27.2505 10.4121 26.4875 10.5134 25.6852C10.6147 24.8829 10.5385 24.0653 10.2915 23.3029H19.8304C19.5837 24.0571 19.5044 24.8662 19.5993 25.6616C19.6942 26.4571 19.9603 27.2154 20.3753 27.8725C20.7903 28.5296 21.3418 29.066 21.9832 29.4363C22.6245 29.8066 23.3369 30 24.0599 30C24.7829 30 25.4952 29.8066 26.1366 29.4363C26.778 29.066 27.3295 28.5296 27.7445 27.8725C28.1595 27.2154 28.4256 26.4571 28.5205 25.6616C28.6153 24.8662 28.5361 24.0571 28.2894 23.3029H28.5894C28.9872 23.3029 29.3686 23.1275 29.6499 22.8154C29.9312 22.5032 30.0892 22.0798 30.0892 21.6384V14.9804C30.0846 14.7277 30.0282 14.4794 29.9243 14.2544C29.8203 14.0295 29.6715 13.8338 29.4893 13.6821ZM27.0895 15.7794V19.9739H22.5901V11.7846L27.0895 15.7794ZM7.59179 24.9674C7.59179 25.2966 7.50382 25.6184 7.33902 25.8921C7.17422 26.1658 6.93998 26.3792 6.66592 26.5052C6.39186 26.6311 6.0903 26.6641 5.79936 26.5999C5.50842 26.5357 5.24118 26.3771 5.03142 26.1443C4.82167 25.9116 4.67882 25.615 4.62095 25.2921C4.56308 24.9692 4.59278 24.6345 4.7063 24.3304C4.81982 24.0263 5.01206 23.7663 5.2587 23.5834C5.50535 23.4005 5.79532 23.3029 6.09196 23.3029C6.48974 23.3029 6.87123 23.4782 7.1525 23.7904C7.43377 24.1025 7.59179 24.5259 7.59179 24.9674ZM15.0909 19.9739H3.09231V3.32898H19.5904V19.9739H15.0909ZM25.5897 24.9674C25.5897 25.2966 25.5018 25.6184 25.337 25.8921C25.1722 26.1658 24.9379 26.3792 24.6639 26.5052C24.3898 26.6311 24.0882 26.6641 23.7973 26.5999C23.5064 26.5357 23.2391 26.3771 23.0294 26.1443C22.8196 25.9116 22.6768 25.615 22.6189 25.2921C22.561 24.9692 22.5907 24.6345 22.7042 24.3304C22.8178 24.0263 23.01 23.7663 23.2566 23.5834C23.5033 23.4005 23.7933 23.3029 24.0899 23.3029C24.4877 23.3029 24.8692 23.4782 25.1504 23.7904C25.4317 24.1025 25.5897 24.5259 25.5897 24.9674Z" fill="#6563FF"/>
</svg>
