<svg width="25" height="25" viewBox="0 0 25 25" fill="none" xmlns="http://www.w3.org/2000/svg">
<path d="M9.73072 0H14.5818C17.155 0 19.6227 1.05357 21.4422 2.92893C23.2617 4.8043 24.2839 7.34784 24.2839 10C24.2839 12.6522 23.2617 15.1957 21.4422 17.0711C19.6227 18.9464 17.155 20 14.5818 20V24.375C8.51796 21.875 0.028595 18.125 0.028595 10C0.028595 7.34784 1.05078 4.8043 2.87028 2.92893C4.68978 1.05357 7.15756 0 9.73072 0ZM12.1563 17.5H14.5818C16.5117 17.5 18.3625 16.7098 19.7271 15.3033C21.0917 13.8968 21.8584 11.9891 21.8584 10C21.8584 8.01088 21.0917 6.10322 19.7271 4.6967C18.3625 3.29018 16.5117 2.5 14.5818 2.5H9.73072C7.80085 2.5 5.95002 3.29018 4.58539 4.6967C3.22077 6.10322 2.45413 8.01088 2.45413 10C2.45413 14.5125 5.43996 17.4575 12.1563 20.6V17.5Z" fill="#6563FF"/>
</svg>
