<svg width="60" height="20" viewBox="0 0 60 20" fill="none" xmlns="http://www.w3.org/2000/svg">
<path d="M31.2515 5.34274H29.4503L28.4345 6.98995H30.2348L31.2515 5.34274ZM35.9241 9.67684C34.9805 9.75489 33.3134 10.599 32.4054 12.4433C31.4974 14.2876 31.4941 15.4261 31.4941 15.4261C31.4941 15.4261 31.973 14.9011 32.7071 14.3515C33.4412 13.8018 33.9875 13.6065 33.9875 13.6065C33.9875 13.6065 34.1238 12.9294 34.4628 12.2212C34.7925 11.5323 35.3156 10.8151 35.9629 10.6523C37.275 10.322 36.6467 12.7169 35.683 14.2785C35.1649 15.1178 33.3276 17.5299 31.7458 17.5299C30.1639 17.5299 29.8587 16.0047 30.1923 14.5787C30.5256 13.153 30.9869 11.3415 33.2947 8.05012C35.6025 4.75871 38.1005 2.80743 39.5464 1.98744C41.0314 1.14576 41.6366 1.51462 41.6366 1.51462C41.6366 1.51462 39.7407 2.68237 38.6622 4.08729C37.6309 5.43013 37.0156 6.94113 37.4941 7.68156C37.9498 8.38704 39.556 8.4003 41.3247 5.84661C43.0704 3.32577 42.6295 1.82682 42.6295 1.82682C42.6295 1.82682 42.8405 1.75811 42.9821 1.73913C43.8334 1.62582 44.5154 1.85033 45.5714 2.39186C46.6776 2.95932 47.739 3.86941 49.1934 4.61406C49.6312 4.1343 50.1185 3.62471 50.6311 3.12747C48.6705 2.17308 47.1821 0.81276 45.2592 0.682272C43.5854 0.568963 42.2658 1.17891 42.2658 1.17891C42.2658 1.17891 41.7553 0.483679 40.1804 0.7106C38.6055 0.937822 33.7534 2.96655 29.6251 9.5777C25.8925 15.5551 27.6512 18.9806 30.3342 18.9414C33.2426 18.8986 36.0093 15.6642 36.9457 12.9969C37.882 10.3296 36.7754 9.60663 35.9241 9.67684ZM41.6335 4.12255C41.1447 5.31411 40.4251 6.14676 39.7169 6.78262C38.8086 7.59839 38.3102 7.57097 38.0944 7.40703C37.5309 6.9779 38.287 5.35962 39.5994 3.91251C40.9064 2.47112 42.0316 2.0227 42.0316 2.0227C42.0316 2.03958 42.2188 2.69382 41.6335 4.12255ZM57.8293 2.38493C56.4985 3.24109 54.6533 4.01647 52.8823 3.84561C52.4344 4.3106 51.9541 4.84641 51.4722 5.43255C54.546 6.03887 57.2347 4.13461 58.6662 2.51211C59.5591 1.50045 60 0.59729 60 0.59729C60 0.59729 59.1474 1.53692 57.8293 2.38493Z" fill="#F40009"/>
<path d="M56.3753 9.89703H54.4813L54.1736 10.3726C54.1736 10.3726 53.7873 9.67553 53.133 9.68668C52.012 9.70597 50.89 10.5618 49.5864 12.0463C48.6308 13.1339 47.0468 15.5553 47.0468 15.5553C47.0468 15.5553 45.8315 17.4282 45.2167 17.2815C44.1686 17.031 46.0964 13.1529 46.0964 13.1529C46.0964 13.1529 47.1098 12.527 48.4231 11.4219C49.25 10.7264 50.2014 9.76956 51.076 8.88266C51.8712 8.07593 52.8085 6.98051 53.6993 5.78051C53.4711 5.81667 53.2373 5.84108 52.9989 5.85283C52.2 6.90637 51.3472 7.84932 50.6218 8.59879C49.5421 9.71441 48.5488 10.6272 47.827 11.2094C47.1354 11.7669 46.6918 12.018 46.6918 12.018C46.6918 12.018 48.0112 9.30848 50.2102 6.31481C52.4092 3.32144 55.4881 0.540531 55.2467 1.85987C55.1777 2.23867 54.9424 2.78202 54.5871 3.42692C54.8372 3.37478 55.0801 3.30969 55.3145 3.23556C55.8443 2.14194 56.0248 1.24058 55.6294 0.980209C54.016 -0.0823714 49.9121 4.31441 47.8548 6.8681C45.7977 9.42179 43.9359 13.3243 43.9359 13.3243C43.9359 13.3243 43.6141 13.4594 43.2582 13.5269C43.0337 13.5697 42.9378 13.5603 42.9011 13.5458C42.8827 13.5383 42.8806 13.5257 42.8806 13.5257C42.8806 13.5257 44.6902 10.1426 42.8375 9.69391C41.0495 9.26117 37.9516 12.5689 36.8502 14.8697C36.0943 16.4482 35.6679 18.4353 36.9641 18.9085C38.3678 19.4211 40.7521 16.8583 41.3126 16.1137C41.8731 15.3687 42.5729 14.1302 42.5729 14.1302C42.5729 14.1302 42.9152 14.1121 43.1024 14.0847C43.4604 14.0319 43.6279 13.9879 43.6279 13.9879C43.6279 13.9879 43.3959 14.5958 43.1449 15.3663C42.6769 16.8032 42.2547 18.8591 43.9395 18.9558C45.013 19.017 46.5879 17.0783 46.5879 17.0783C46.5879 17.0783 46.1642 18.8021 47.5573 18.9558C48.5859 19.0691 50.0827 17.48 50.0827 17.48C50.0827 17.48 49.7566 18.8491 50.7993 18.9697C51.6919 19.073 52.9591 18.0264 53.9982 16.8749C55.1328 15.6177 56.0031 14.2408 56.0031 14.2408H55.3435C55.3435 14.2408 53.8834 16.4569 52.8582 17.05C52.0165 17.537 52.3049 16.7568 52.5601 16.3479C52.8416 15.8967 56.3744 9.89703 56.3744 9.89733L56.3753 9.89703ZM41.9449 14.0711C41.919 14.1305 41.4449 14.9553 40.9377 15.6038C40.3914 16.3026 39.3912 17.3544 38.79 17.132C37.85 16.7842 38.8843 14.7365 39.5605 13.7432C40.2368 12.75 40.3136 12.6828 40.3326 12.6568C40.3516 12.6309 40.3706 12.6071 40.3872 12.6379C40.4037 12.6686 40.6189 13.0766 41.0438 13.4307C41.4705 13.7863 41.881 13.9741 41.9141 13.9858C41.9473 13.9976 41.9711 14.0117 41.9449 14.0708V14.0711ZM42.3677 13.3331C42.3083 13.4319 42.2658 13.4368 42.1426 13.4039C41.9256 13.3451 41.0266 12.9296 41.0336 12.0077C41.0399 11.1094 42.3062 10.2294 42.8028 10.6055C43.2663 10.9563 43.0448 11.8531 42.87 12.3106C42.6955 12.7677 42.4066 13.2683 42.3677 13.3331ZM50.972 15.5553C50.7219 15.8982 50.5127 16.208 50.3241 16.4256C49.9209 16.8912 49.6578 17.1079 49.4233 17.1651C49.3052 17.1938 49.1587 17.1868 49.0617 17.1281C48.7175 16.9186 48.9586 16.1032 49.5577 15.0068C50.1059 14.0048 50.7393 13.0022 51.7805 11.848C52.8259 10.6893 53.2258 10.6335 53.5184 10.6468C53.7647 10.6573 53.7996 10.9162 53.7996 10.9162C53.7996 10.9162 53.7821 10.9762 53.743 11.044C53.3979 11.6422 51.6597 14.6123 50.9717 15.5553H50.972ZM23.0342 17.0048C21.8857 16.2951 20.4124 15.8398 18.7197 15.825C14.3591 15.787 9.61119 17.9056 6.39542 17.9342C2.60256 17.9673 2.41361 15.0493 2.69477 13.447C3.2999 9.99497 5.74841 6.70175 7.3227 4.96534C8.89728 3.22893 10.5472 1.88156 11.919 1.53712C13.2907 1.19267 13.1618 2.23596 12.9939 2.3785C12.8206 2.38212 12.4882 2.41949 12.2996 2.54997C12.0043 2.75369 11.6098 3.12677 11.5851 3.71833C11.5426 4.62963 12.7203 4.78935 13.5716 2.88116C14.1523 1.57961 13.2314 0.696332 12.4665 0.61135C11.4175 0.494424 9.81431 0.859064 7.9007 2.0889C4.57011 4.22913 0.115168 8.98181 0.00155633 14.2549C-0.0632352 17.2631 1.90191 18.9558 4.59814 18.9558C7.29437 18.9558 10.9549 17.3047 14.5293 17.2625C16.7425 17.2435 18.1748 18.0192 18.9002 19.2825C18.9002 19.2825 19.621 18.0834 21.2264 18.0192C22.8145 17.9553 24.563 18.4004 25.9983 19.4093C25.5195 18.7174 24.1658 17.704 23.0339 17.0048H23.0342Z" fill="#F40009"/>
<path d="M13.1036 5.15829C11.2756 4.6924 8.2397 7.8042 6.96044 10.3368C6.17149 11.899 5.82553 13.8624 7.23015 14.3732C8.63477 14.884 11.0179 12.323 11.5784 11.5784C12.1389 10.8334 13.0563 9.34141 13.0563 9.34141C13.0563 9.34141 13.3377 9.28717 13.5222 9.24438C13.7066 9.20158 14.0046 9.1166 14.0046 9.1166C14.0046 9.1166 13.659 9.73257 13.3471 10.3639C12.9773 11.1125 11.9726 13.6044 13.9124 14.3518C15.7658 15.0657 18.4041 12.0886 18.5428 12.0322C18.5428 12.0322 17.7574 14.0609 18.9773 14.3732C20.3159 14.7155 21.7829 13.0005 21.7829 13.0005C21.7829 13.0005 21.474 14.2879 22.517 14.4087C24.3848 14.6248 27.6886 9.84739 27.6886 9.84739H27.0286C27.0286 9.84739 25.3474 12.0108 24.5388 12.4577C23.7303 12.9046 24.0211 12.1106 24.2408 11.7556C24.521 11.3038 28.0927 5.33579 28.0927 5.33579H26.1987L25.979 5.68325C25.979 5.68325 25.5888 5.08747 24.9363 5.12997C23.0381 5.25382 20.7794 8.27944 19.7861 9.61294C18.7932 10.9467 16.6508 13.4932 15.5229 13.0394C14.2936 12.5445 15.5159 10.2729 16.3245 8.9391C17.2047 7.48717 18.7649 6.0491 19.3817 6.03795C20.1408 6.02379 19.8428 6.71178 19.8428 6.71178C19.8428 6.71178 19.2753 6.64096 18.864 7.15869C18.5729 7.52484 18.3318 8.05945 18.6084 8.35025C19.0554 8.82007 19.6373 8.34302 19.9847 7.81083C21.0681 6.15247 20.2755 5.27853 19.4245 5.15106C17.6116 4.87894 15.9414 7.20812 14.6718 8.07361C13.791 8.67361 13.423 8.6269 13.423 8.6269C13.423 8.6269 14.9512 5.62901 13.1039 5.15799L13.1036 5.15829ZM21.311 10.5212C21.8592 9.51891 22.6059 8.55126 23.5778 7.3383C24.5497 6.12534 25.0334 6.0271 25.326 6.04036C25.5722 6.05121 25.6071 6.30977 25.6071 6.30977C25.6071 6.30977 23.4955 9.98903 22.7295 11.039C22.4794 11.3819 22.2654 11.6724 22.0768 11.8903C21.6735 12.3559 21.3806 12.581 21.1546 12.637C21.0365 12.666 20.89 12.6587 20.7927 12.5997C20.4485 12.3902 20.711 11.6173 21.3107 10.5212H21.311ZM12.3493 9.32725C12.3231 9.38632 11.7201 10.3835 11.2132 11.032C10.6671 11.7309 9.65788 12.7868 9.05667 12.5644C8.11674 12.2167 9.11935 10.1831 9.7956 9.19013C10.4718 8.19686 10.571 8.06909 10.5903 8.04347C10.6093 8.01726 10.6279 7.99345 10.6445 8.02449C10.6611 8.05523 10.8763 8.49762 11.3422 8.79536C11.8081 9.0934 12.2857 9.23051 12.3188 9.24227C12.352 9.25402 12.3758 9.26849 12.3496 9.32725H12.3493ZM13.1355 7.77497C12.9607 8.23273 12.8046 8.52112 12.7724 8.58923C12.7206 8.69832 12.5907 8.66336 12.5907 8.66336C12.4427 8.65673 11.2924 8.39425 11.2991 7.4724C11.3054 6.57406 12.572 5.6941 13.0683 6.0702C13.5318 6.42097 13.3103 7.31781 13.1355 7.77497ZM54.9502 17.8623C54.8396 17.7996 54.7166 17.7685 54.5813 17.7685C54.446 17.7685 54.323 17.7999 54.2124 17.8623C54.1018 17.9249 54.015 18.0099 53.9515 18.1181C53.8882 18.226 53.8562 18.3435 53.8562 18.4701C53.8562 18.5967 53.8879 18.7163 53.9515 18.8236C54.0147 18.9306 54.1018 19.0155 54.2124 19.0779C54.323 19.1406 54.446 19.1716 54.5813 19.1716C54.7166 19.1716 54.8396 19.1403 54.9502 19.0779C55.0608 19.0155 55.1475 18.9306 55.2111 18.8236C55.2744 18.7166 55.3064 18.5988 55.3064 18.4701C55.3064 18.3414 55.2747 18.226 55.2111 18.1181C55.1478 18.0102 55.0608 17.9249 54.9502 17.8623ZM55.08 18.7606C55.0321 18.8462 54.9646 18.9134 54.8781 18.9625C54.7916 19.0113 54.6925 19.0357 54.5813 19.0357C54.4701 19.0357 54.3709 19.0113 54.2845 18.9625C54.198 18.9137 54.1308 18.8465 54.0826 18.7606C54.0346 18.675 54.0105 18.578 54.0105 18.4701C54.0105 18.3622 54.0346 18.2679 54.0826 18.1823C54.1305 18.0967 54.1983 18.0295 54.2857 17.9804C54.3731 17.9313 54.4716 17.9072 54.5813 17.9072C54.691 17.9072 54.7895 17.9316 54.8769 17.9804C54.9643 18.0292 55.0321 18.0964 55.08 18.1823C55.128 18.2679 55.1521 18.364 55.1521 18.4701C55.1521 18.5762 55.128 18.675 55.08 18.7606Z" fill="#F40009"/>
<path d="M54.8538 18.4586C54.8742 18.4251 54.8845 18.3877 54.8845 18.3468C54.8845 18.2901 54.8661 18.2428 54.8293 18.2042C54.7926 18.1656 54.7432 18.1464 54.6817 18.1464H54.314V18.7813H54.4759V18.5499H54.5991L54.7483 18.7813H54.9333L54.7664 18.5345C54.804 18.5173 54.8333 18.492 54.8538 18.4586ZM54.6995 18.3917C54.6874 18.4028 54.6711 18.4082 54.6506 18.4082H54.4759V18.285H54.6506C54.6711 18.285 54.6874 18.2907 54.6995 18.3016C54.7115 18.3127 54.7175 18.3278 54.7175 18.3465C54.7175 18.3651 54.7115 18.3802 54.6995 18.3914V18.3917Z" fill="#F40009"/>
</svg>
