<svg width="25" height="25" viewBox="0 0 25 25" fill="none" xmlns="http://www.w3.org/2000/svg">
<path d="M23.3156 0H1.48584C1.16419 0 0.85572 0.131696 0.628282 0.366116C0.400844 0.600537 0.273071 0.918479 0.273071 1.25V23.75C0.273071 24.0815 0.400844 24.3995 0.628282 24.6339C0.85572 24.8683 1.16419 25 1.48584 25H23.3156C23.6373 25 23.9457 24.8683 24.1732 24.6339C24.4006 24.3995 24.5284 24.0815 24.5284 23.75V1.25C24.5284 0.918479 24.4006 0.600537 24.1732 0.366116C23.9457 0.131696 23.6373 0 23.3156 0ZM7.54967 22.5H2.6986V2.5H7.54967V22.5ZM22.1029 22.5H9.9752V13.75H22.1029V22.5ZM22.1029 11.25H9.9752V2.5H22.1029V11.25Z" fill="#6563FF"/>
</svg>
