<svg width="70" height="14" viewBox="0 0 70 14" fill="none" xmlns="http://www.w3.org/2000/svg">
<path d="M5.48311 2.35412C4.66229 2.35412 4.41604 2.71528 4.41604 3.51969V4.84943H6.61585L6.40244 7.01641H4.41604V13.5666H1.77298V7.01641H0V4.86584H1.77298V3.56894C1.77298 1.36913 2.65947 0.219971 5.10553 0.219971C5.61445 0.219971 6.13977 0.252804 6.64869 0.31847V2.35412" fill="#004F9D"/>
<path d="M6.79645 8.93712C6.79645 6.50747 7.9456 4.66882 10.3752 4.66882C11.6886 4.66882 12.493 5.3419 12.887 6.19556V4.86582H15.4151V13.583H12.8706V12.2697C12.5094 13.1069 11.6721 13.7636 10.3588 13.7636C7.9456 13.7636 6.78003 11.9413 6.78003 9.49528M9.4395 9.52811C9.4395 10.825 9.91558 11.6951 11.1468 11.6951C12.2303 11.6951 12.7721 10.9071 12.7721 9.65944V8.77295C12.7721 7.5253 12.2139 6.7373 11.1468 6.7373C9.91558 6.7373 9.4395 7.59096 9.4395 8.90428V9.52811Z" fill="#004F9D"/>
<path d="M20.8982 4.66882C21.916 4.66882 22.901 4.88224 23.4264 5.25982L22.8354 7.1313C22.2936 6.86864 21.6862 6.7373 21.0788 6.7373C19.6506 6.7373 19.0267 7.55813 19.0267 8.96995V9.47886C19.0267 10.8907 19.6506 11.7115 21.0788 11.7115C21.6862 11.7115 22.2936 11.5638 22.8354 11.3011L23.4264 13.1726C22.901 13.5337 21.9324 13.7636 20.8982 13.7636C17.7955 13.7636 16.4001 12.1055 16.4001 9.42961V9.0192C16.4001 6.34331 17.7955 4.66882 20.8982 4.66882Z" fill="#004F9D"/>
<path d="M23.7711 9.54453V8.77295C23.7711 6.29406 25.1829 4.66882 28.0558 4.66882C30.7645 4.66882 31.963 6.31047 31.963 8.74012V10.1355H26.4142C26.4634 11.3339 27.0052 11.8593 28.4662 11.8593C29.4184 11.8593 30.3706 11.6787 31.2735 11.3339L31.7495 13.1397C31.06 13.5009 29.6318 13.78 28.3677 13.78C25.0188 13.7636 23.7711 12.1055 23.7711 9.54453ZM26.4142 8.39537H29.599V8.18196C29.599 7.2298 29.2214 6.47464 28.0558 6.47464C26.8738 6.47464 26.4142 7.2298 26.4142 8.39537Z" fill="#004F9D"/>
<path d="M41.7472 9.4953C41.7472 11.9249 40.5816 13.7636 38.152 13.7636C36.8387 13.7636 35.9193 13.1069 35.5582 12.2697V13.583H33.0629V0.482639L35.7059 0.252808V6.08067C36.0835 5.30909 36.9372 4.68527 38.1684 4.68527C40.5816 4.68527 41.7636 6.5075 41.7636 8.95356M39.1041 8.88789C39.1041 7.65665 38.6281 6.73733 37.364 6.73733C36.2805 6.73733 35.7059 7.5089 35.7059 8.75656V9.67588C35.7059 10.9235 36.2969 11.6951 37.364 11.6951C38.6281 11.6951 39.1041 10.7758 39.1041 9.54455V8.88789Z" fill="#004F9D"/>
<path d="M42.6172 9.42961V8.98637C42.6172 6.47464 44.0455 4.66882 46.9512 4.66882C49.8569 4.66882 51.2852 6.47464 51.2852 8.98637V9.42961C51.2852 11.9413 49.8569 13.7472 46.9512 13.7472C44.0455 13.7472 42.6172 11.9578 42.6172 9.42961ZM48.6585 8.80578C48.6585 7.65663 48.1824 6.7373 46.9512 6.7373C45.72 6.7373 45.2439 7.65663 45.2439 8.80578V9.62661C45.2439 10.7758 45.72 11.6951 46.9512 11.6951C48.1824 11.6951 48.6585 10.7758 48.6585 9.62661V8.80578Z" fill="#004F9D"/>
<path d="M52.1881 9.42961V8.98637C52.1881 6.47464 53.6163 4.66882 56.5221 4.66882C59.4278 4.66882 60.856 6.47464 60.856 8.98637V9.42961C60.856 11.9413 59.4278 13.7472 56.5221 13.7472C53.6163 13.7472 52.1881 11.9578 52.1881 9.42961ZM58.2294 8.80578C58.2294 7.65663 57.7533 6.7373 56.5221 6.7373C55.2908 6.7373 54.8147 7.65663 54.8147 8.80578V9.62661C54.8147 10.7758 55.2908 11.6951 56.5221 11.6951C57.7533 11.6951 58.2294 10.7758 58.2294 9.62661V8.80578Z" fill="#004F9D"/>
<path d="M64.484 9.0194L67.0943 4.84961H69.8851L67.1599 9.16715L70 13.5832H67.1928L64.484 9.3149V13.5832H61.8574V0.48282L64.484 0.236572" fill="#004F9D"/>
</svg>
