<svg width="14" height="20" viewBox="0 0 14 20" fill="none" xmlns="http://www.w3.org/2000/svg">
<path fill-rule="evenodd" clip-rule="evenodd" d="M1.5 7.01259C1.5 10.0597 3.96497 12.5252 7 12.5252C10.035 12.5252 12.5 10.0597 12.5 7.01259C12.5 3.96553 10.035 1.5 7 1.5C3.96497 1.5 1.5 3.96553 1.5 7.01259ZM0 7.01259C-1.56705e-07 10.6222 2.72225 13.5948 6.22221 13.9824V17.2285L7.72221 17.2285V13.9883C11.2489 13.6262 14 10.6413 14 7.01259C14 3.13964 10.866 1.70147e-07 7 0C3.13401 -1.70147e-07 1.68139e-07 3.13964 0 7.01259ZM3.26559 19.4659H10.5989L10.5989 17.9659H3.26559V19.4659Z" fill="#939393"/>
</svg>
