<svg width="24" height="33" viewBox="0 0 24 33" fill="none" xmlns="http://www.w3.org/2000/svg">
<path fill-rule="evenodd" clip-rule="evenodd" d="M2.71875 11.8017C2.71875 17.0113 6.93342 21.2283 12.1249 21.2283C17.3164 21.2283 21.5311 17.0113 21.5311 11.8017C21.5311 6.59207 17.3164 2.375 12.1249 2.375C6.93342 2.375 2.71875 6.59207 2.71875 11.8017ZM0.71875 11.8017C0.71875 17.6833 5.15453 22.527 10.8575 23.1586V28.4479H12.8575V23.2052C18.8156 22.8268 23.5311 17.8659 23.5311 11.8017C23.5311 5.4909 18.4243 0.375 12.1249 0.375C5.82546 0.375 0.71875 5.49089 0.71875 11.8017ZM6.03987 32.0938H17.9892V30.0938H6.03987V32.0938Z" fill="black"/>
</svg>
