<svg width="25" height="23" viewBox="0 0 25 23" fill="none" xmlns="http://www.w3.org/2000/svg">
<path fill-rule="evenodd" clip-rule="evenodd" d="M2.62091 0H22.0252C22.6685 0 23.2854 0.263392 23.7403 0.732233C24.1951 1.20107 24.4507 1.83696 24.4507 2.5V5C24.4481 5.43628 24.3349 5.86428 24.1221 6.24146C23.9093 6.61864 23.6045 6.93186 23.2379 7.15V20C23.2379 20.663 22.9824 21.2989 22.5275 21.7678C22.0726 22.2366 21.4557 22.5 20.8124 22.5H3.83367C3.19038 22.5 2.57344 22.2366 2.11856 21.7678C1.66369 21.2989 1.40814 20.663 1.40814 20V7.15C1.04155 6.93186 0.736729 6.61864 0.523971 6.24146C0.311214 5.86428 0.197929 5.43628 0.195374 5V2.5C0.195374 1.83696 0.45092 1.20107 0.905795 0.732233C1.36067 0.263392 1.97761 0 2.62091 0ZM22.0252 2.5H2.62091V5H22.0252V2.5ZM3.83367 7.5V20H20.8124V7.5H3.83367ZM17.1741 10H7.47197V12.5H17.1741V10Z" fill="#6563FF"/>
</svg>
