<svg width="25" height="25" viewBox="0 0 25 25" fill="none" xmlns="http://www.w3.org/2000/svg">
<path d="M8.69827 11.6185C8.5846 11.7348 8.49437 11.873 8.4328 12.0253C8.37123 12.1777 8.33953 12.341 8.33953 12.506C8.33953 12.6711 8.37123 12.8344 8.4328 12.9868C8.49437 13.1391 8.5846 13.2773 8.69827 13.3935C8.92549 13.6264 9.23287 13.757 9.55327 13.757C9.87366 13.757 10.181 13.6264 10.4083 13.3935C10.5219 13.2773 10.6122 13.1391 10.6737 12.9868C10.7353 12.8344 10.767 12.6711 10.767 12.506C10.767 12.341 10.7353 12.1777 10.6737 12.0253C10.6122 11.873 10.5219 11.7348 10.4083 11.6185C10.181 11.3857 9.87366 11.2551 9.55327 11.2551C9.23287 11.2551 8.92549 11.3857 8.69827 11.6185ZM11.6938 14.7185C11.4679 14.9528 11.3411 15.2696 11.3411 15.5998C11.3411 15.93 11.4679 16.2468 11.6938 16.481C11.8065 16.5982 11.9407 16.6912 12.0885 16.7547C12.2362 16.8181 12.3948 16.8508 12.5549 16.8508C12.715 16.8508 12.8735 16.8181 13.0213 16.7547C13.1691 16.6912 13.3032 16.5982 13.4159 16.481C13.6418 16.2468 13.7686 15.93 13.7686 15.5998C13.7686 15.2696 13.6418 14.9528 13.4159 14.7185C13.3032 14.6014 13.1691 14.5084 13.0213 14.4449C12.8735 14.3815 12.715 14.3488 12.5549 14.3488C12.3948 14.3488 12.2362 14.3815 12.0885 14.4449C11.9407 14.5084 11.8065 14.6014 11.6938 14.7185ZM22.6087 2.21855C21.2895 0.847582 19.508 0.053867 17.6353 0.00264237C15.7625 -0.0485823 13.9428 0.64663 12.5549 1.94355C11.1733 0.661773 9.36828 -0.0264758 7.51003 0.0200122C5.65177 0.0665002 3.88124 0.8442 2.56167 2.19355C1.25069 3.55585 0.496148 5.38422 0.453286 7.30249C0.410424 9.22075 1.0825 11.083 2.33125 12.506C1.39763 13.5818 0.785016 14.9125 0.566928 16.3382C0.34884 17.764 0.53454 19.2243 1.10174 20.544C1.66895 21.8637 2.59355 22.9866 3.76462 23.7781C4.93568 24.5696 6.30346 24.9959 7.7038 25.006C9.49896 25.008 11.2297 24.3168 12.5549 23.0686C13.9371 24.354 15.7447 25.0445 17.6058 24.998C19.467 24.9515 21.24 24.1715 22.5602 22.8185C23.8695 21.4546 24.6218 19.6254 24.6624 17.7071C24.703 15.7889 24.0288 13.9275 22.7785 12.506C24.0288 11.0846 24.703 9.22322 24.6624 7.30498C24.6218 5.38673 23.8695 3.55747 22.5602 2.19355L22.6087 2.21855ZM20.8381 3.96855C21.6814 4.86278 22.1702 6.0496 22.2083 7.2961C22.2465 8.54261 21.8313 9.75881 21.0442 10.706L14.3012 3.75605C15.2283 2.96322 16.4047 2.54718 17.6087 2.58632C18.8127 2.62547 19.9613 3.11708 20.8381 3.96855ZM4.27167 21.0435C3.42828 20.1493 2.93955 18.9625 2.90141 17.716C2.86327 16.4695 3.27845 15.2533 4.0655 14.306L10.857 21.306C9.91965 22.1036 8.73031 22.5176 7.51576 22.4692C6.30122 22.4208 5.14645 21.9133 4.27167 21.0435ZM20.8381 21.0435C19.9172 21.9512 18.6922 22.4578 17.4181 22.4578C16.1439 22.4578 14.9189 21.9512 13.9981 21.0435L4.29593 11.0435C3.39241 10.1067 2.88527 8.83948 2.88527 7.51855C2.88527 6.19762 3.39241 4.93036 4.29593 3.99355C5.20483 3.06229 6.43435 2.53959 7.71593 2.53959C8.99751 2.53959 10.227 3.06229 11.1359 3.99355L20.8381 13.9935C21.7416 14.9304 22.2487 16.1976 22.2487 17.5185C22.2487 18.8395 21.7416 20.1067 20.8381 21.0435ZM14.7015 11.6185C14.5878 11.7348 14.4976 11.873 14.436 12.0253C14.3744 12.1777 14.3427 12.341 14.3427 12.506C14.3427 12.6711 14.3744 12.8344 14.436 12.9868C14.4976 13.1391 14.5878 13.2773 14.7015 13.3935C14.9287 13.6264 15.2361 13.757 15.5565 13.757C15.8769 13.757 16.1842 13.6264 16.4115 13.3935C16.5251 13.2773 16.6154 13.1391 16.6769 12.9868C16.7385 12.8344 16.7702 12.6711 16.7702 12.506C16.7702 12.341 16.7385 12.1777 16.6769 12.0253C16.6154 11.873 16.5251 11.7348 16.4115 11.6185C16.1842 11.3857 15.8769 11.2551 15.5565 11.2551C15.2361 11.2551 14.9287 11.3857 14.7015 11.6185ZM11.6938 8.53105C11.4679 8.76525 11.3411 9.08207 11.3411 9.4123C11.3411 9.74253 11.4679 10.0593 11.6938 10.2935C11.8065 10.4107 11.9407 10.5037 12.0885 10.5672C12.2362 10.6306 12.3948 10.6633 12.5549 10.6633C12.715 10.6633 12.8735 10.6306 13.0213 10.5672C13.1691 10.5037 13.3032 10.4107 13.4159 10.2935C13.6418 10.0593 13.7686 9.74253 13.7686 9.4123C13.7686 9.08207 13.6418 8.76525 13.4159 8.53105C13.3032 8.41389 13.1691 8.3209 13.0213 8.25743C12.8735 8.19397 12.715 8.1613 12.5549 8.1613C12.3948 8.1613 12.2362 8.19397 12.0885 8.25743C11.9407 8.3209 11.8065 8.41389 11.6938 8.53105Z" fill="#6563FF"/>
</svg>
