<svg width="30" height="30" viewBox="0 0 30 30" fill="none" xmlns="http://www.w3.org/2000/svg">
<path fill-rule="evenodd" clip-rule="evenodd" d="M14.5048 0H14.6591C17.785 0 20.234 8.31693e-08 22.1455 0.265116C24.1004 0.535814 25.6437 1.10233 26.8554 2.34977C28.067 3.5986 28.6153 5.1893 28.8779 7.20558C29.1351 9.17442 29.1351 11.6986 29.1351 14.9205V15.0795C29.1351 18.3014 29.1351 20.8256 28.8779 22.7958C28.6153 24.8107 28.0656 26.4014 26.8554 27.6502C25.6437 28.8991 24.1004 29.4642 22.1442 29.7349C20.234 30 17.785 30 14.6591 30H14.5048C11.3789 30 8.92989 30 7.01834 29.7349C5.06348 29.4642 3.52016 28.8977 2.30852 27.6502C1.09688 26.4014 0.548601 24.8107 0.285967 22.7944C0.0287476 20.8256 0.0287476 18.3014 0.0287476 15.0795V14.9205C0.0287476 11.6986 0.0287476 9.17442 0.285967 7.20419C0.548601 5.1893 1.09824 3.5986 2.30852 2.34977C3.52016 1.10093 5.06348 0.535814 7.01969 0.265116C8.92989 8.31693e-08 11.3789 0 14.5048 0ZM7.2891 2.3386C5.55896 2.5786 4.51519 3.03628 3.74489 3.83023C2.97323 4.62558 2.53054 5.7 2.29769 7.48465C2.26114 7.76651 2.23 8.06093 2.20293 8.37209H7.25525L11.1217 2.10977C9.59595 2.13349 8.34234 2.19349 7.2891 2.3386ZM13.5084 2.09302C13.4829 2.16785 13.4493 2.23947 13.4082 2.30651L9.66228 8.37209H16.0549L19.8861 2.16558C18.4497 2.09302 16.7155 2.09302 14.5819 2.09302H13.5084ZM22.1604 2.38186L18.4619 8.37209H26.9596C26.9325 8.06093 26.9027 7.76651 26.8648 7.48465C26.6333 5.7 26.1906 4.62419 25.419 3.82884C24.692 3.07953 23.7213 2.63163 22.1604 2.38186ZM27.0679 10.4651H7.8279C7.81708 10.4653 7.80624 10.4653 7.79541 10.4651H2.09598C2.06402 11.9765 2.05184 13.4883 2.05943 15C2.05943 18.3181 2.06213 20.7014 2.29769 22.5153C2.53054 24.3 2.97458 25.3758 3.74489 26.1712C4.51655 26.9651 5.55896 27.4214 7.29045 27.6614C9.05037 27.9042 11.3626 27.907 14.5819 27.907C17.8012 27.907 20.1135 27.9042 21.8734 27.6614C23.6049 27.4214 24.6487 26.9637 25.4203 26.1698C26.1906 25.3744 26.6333 24.3 26.8662 22.5153C27.1017 20.7014 27.1045 18.3181 27.1045 15C27.1045 13.2447 27.1045 11.7516 27.0679 10.4651Z" fill="#6563FF"/>
</svg>
