<svg width="19" height="30" viewBox="0 0 19 30" fill="none" xmlns="http://www.w3.org/2000/svg">
<path d="M8.45894 0C8.70528 0 8.91846 0.0927734 9.09848 0.27832C9.2785 0.463867 9.36851 0.683594 9.36851 0.9375V11.25C9.36851 11.7676 9.27376 12.251 9.08427 12.7002C8.89477 13.1494 8.63422 13.5449 8.3026 13.8867C7.97099 14.2285 7.58252 14.4971 7.13721 14.6924C6.6919 14.8877 6.2229 14.9902 5.73021 15V29.0625C5.73021 29.3164 5.6402 29.5361 5.46018 29.7217C5.28016 29.9072 5.06698 30 4.82064 30C4.5743 30 4.36111 29.9072 4.18109 29.7217C4.00107 29.5361 3.91106 29.3164 3.91106 29.0625V15C3.4089 15 2.9399 14.9023 2.50407 14.707C2.06823 14.5117 1.6845 14.2432 1.35289 13.9014C1.02127 13.5596 0.760715 13.1641 0.57122 12.7148C0.381726 12.2656 0.282241 11.7773 0.272766 11.25V0.9375C0.272766 0.683594 0.362776 0.463867 0.542796 0.27832C0.722816 0.0927734 0.935998 0 1.18234 0C1.42868 0 1.64187 0.0927734 1.82189 0.27832C2.00191 0.463867 2.09192 0.683594 2.09192 0.9375V11.25C2.09192 11.5137 2.13929 11.7578 2.23404 11.9824C2.32878 12.207 2.45669 12.4023 2.61776 12.5684C2.77883 12.7344 2.97307 12.8711 3.20046 12.9785C3.42785 13.0859 3.66472 13.1348 3.91106 13.125V0.9375C3.91106 0.683594 4.00107 0.463867 4.18109 0.27832C4.36111 0.0927734 4.5743 0 4.82064 0C5.06698 0 5.28016 0.0927734 5.46018 0.27832C5.6402 0.463867 5.73021 0.683594 5.73021 0.9375V13.125C5.98603 13.125 6.2229 13.0762 6.44082 12.9785C6.65874 12.8809 6.84823 12.749 7.0093 12.583C7.17037 12.417 7.30302 12.2168 7.40724 11.9824C7.51146 11.748 7.55884 11.5039 7.54936 11.25V0.9375C7.54936 0.683594 7.63937 0.463867 7.81939 0.27832C7.99941 0.0927734 8.21259 0 8.45894 0ZM18.4643 0V29.0625C18.4643 29.3164 18.3742 29.5361 18.1942 29.7217C18.0142 29.9072 17.801 30 17.5547 30C17.3083 30 17.0952 29.9072 16.9151 29.7217C16.7351 29.5361 16.6451 29.3164 16.6451 29.0625V20.625C16.2945 20.625 15.9156 20.6299 15.5081 20.6396C15.1007 20.6494 14.698 20.6445 14.3001 20.625C13.9022 20.6055 13.5137 20.5469 13.1347 20.4492C12.7557 20.3516 12.4241 20.2002 12.1399 19.9951C11.8556 19.79 11.6235 19.5117 11.4435 19.1602C11.2635 18.8086 11.1782 18.3594 11.1877 17.8125V6.5625C11.1877 5.6543 11.3535 4.80469 11.6851 4.01367C12.0167 3.22266 12.4715 2.5293 13.0494 1.93359C13.6274 1.33789 14.3001 0.869141 15.0676 0.527344C15.835 0.185547 16.6641 0.00976562 17.5547 0H18.4643ZM16.6451 1.96289C16.1145 2.07031 15.6313 2.26562 15.1955 2.54883C14.7596 2.83203 14.3759 3.18359 14.0443 3.60352C13.7127 4.02344 13.4569 4.47754 13.2768 4.96582C13.0968 5.4541 13.0068 5.98633 13.0068 6.5625V17.8125C13.0068 18.0664 13.0968 18.2861 13.2768 18.4717C13.4569 18.6572 13.67 18.75 13.9164 18.75H16.6451V1.96289Z" fill="#6563FF"/>
</svg>
