<svg width="31" height="30" viewBox="0 0 31 30" fill="none" xmlns="http://www.w3.org/2000/svg">
<path d="M11.1009 25.2632C10.6065 25.2632 10.1231 25.4021 9.71199 25.6623C9.30086 25.9226 8.98043 26.2925 8.79121 26.7252C8.60199 27.158 8.55248 27.6342 8.64895 28.0936C8.74541 28.5531 8.98351 28.9751 9.33314 29.3063C9.68278 29.6375 10.1282 29.8631 10.6132 29.9545C11.0981 30.0459 11.6008 29.999 12.0576 29.8197C12.5144 29.6405 12.9049 29.3369 13.1796 28.9474C13.4543 28.5579 13.6009 28.1 13.6009 27.6316C13.6009 27.0034 13.3375 26.401 12.8687 25.9569C12.3998 25.5127 11.764 25.2632 11.1009 25.2632ZM28.6009 20.5263H8.60091C8.15888 20.5263 7.73496 20.36 7.4224 20.0639C7.10984 19.7677 6.93424 19.3661 6.93424 18.9474C6.93424 18.5286 7.10984 18.127 7.4224 17.8309C7.73496 17.5348 8.15888 17.3684 8.60091 17.3684H22.7526C23.8384 17.3652 24.8939 17.0287 25.7608 16.4092C26.6277 15.7898 27.2593 14.9208 27.5609 13.9326L30.2026 5.16947C30.2732 4.93463 30.2854 4.68746 30.2381 4.4474C30.1909 4.20735 30.0855 3.98094 29.9303 3.78599C29.775 3.59104 29.5742 3.43286 29.3435 3.32387C29.1129 3.21489 28.8587 3.15807 28.6009 3.15789H8.16758C7.82226 2.23739 7.18563 1.44021 6.34452 0.875069C5.5034 0.30993 4.49875 0.00434788 3.46758 0H1.93424C1.49222 0 1.06829 0.166353 0.755733 0.462463C0.443173 0.758573 0.267578 1.16018 0.267578 1.57895C0.267578 1.99771 0.443173 2.39932 0.755733 2.69543C1.06829 2.99154 1.49222 3.15789 1.93424 3.15789H3.46924C3.83117 3.15899 4.18298 3.27111 4.47201 3.47747C4.76104 3.68383 4.97175 3.97333 5.07258 4.30263L5.33091 5.16316V5.17105L8.06591 14.2374C6.79286 14.3663 5.62052 14.953 4.7905 15.8765C3.96048 16.8 3.53602 17.99 3.60462 19.2011C3.67321 20.4123 4.22962 21.5524 5.15918 22.3865C6.08873 23.2206 7.3206 23.6851 8.60091 23.6842H28.6009C29.0429 23.6842 29.4669 23.5179 29.7794 23.2218C30.092 22.9256 30.2676 22.524 30.2676 22.1053C30.2676 21.6865 30.092 21.2849 29.7794 20.9888C29.4669 20.6927 29.0429 20.5263 28.6009 20.5263ZM26.3909 6.31579L24.3576 13.0642C24.257 13.3941 24.0461 13.6841 23.7567 13.8908C23.4674 14.0975 23.115 14.2097 22.7526 14.2105H11.5242L11.0992 12.8021L9.14425 6.31579H26.3909ZM24.4342 25.2632C23.9398 25.2632 23.4564 25.4021 23.0453 25.6623C22.6342 25.9226 22.3138 26.2925 22.1245 26.7252C21.9353 27.158 21.8858 27.6342 21.9823 28.0936C22.0787 28.5531 22.3168 28.9751 22.6665 29.3063C23.0161 29.6375 23.4616 29.8631 23.9465 29.9545C24.4315 30.0459 24.9341 29.999 25.391 29.8197C25.8478 29.6405 26.2382 29.3369 26.5129 28.9474C26.7876 28.5579 26.9342 28.1 26.9342 27.6316C26.9342 27.0034 26.6709 26.401 26.202 25.9569C25.7332 25.5127 25.0973 25.2632 24.4342 25.2632Z" fill="#6563FF"/>
</svg>
