<svg width="25" height="25" viewBox="0 0 25 25" fill="none" xmlns="http://www.w3.org/2000/svg">
<path fill-rule="evenodd" clip-rule="evenodd" d="M18.6694 18.9033C14.9762 22.5739 8.95231 22.5679 5.21467 18.8532C1.47704 15.1384 1.47102 9.15144 5.16423 5.48083C8.85745 1.81022 14.8813 1.81621 18.6189 5.53096C22.3566 9.24572 22.3626 15.2327 18.6694 18.9033ZM19.1357 21.1604C14.6238 24.7469 8.00203 24.4432 3.79612 20.263C-0.71666 15.7779 -0.739243 8.52844 3.74568 4.07097C8.23061 -0.386506 15.5247 -0.364061 20.0375 4.1211C24.3758 8.43284 24.5644 15.2992 20.5879 19.7839L24.3366 23.5097L22.9181 24.9196L19.1357 21.1604Z" fill="black"/>
</svg>
