<svg width="60" height="12" viewBox="0 0 60 12" fill="none" xmlns="http://www.w3.org/2000/svg">
<path fill-rule="evenodd" clip-rule="evenodd" d="M59.685 9.87026C59.685 9.78445 59.6468 9.69417 59.5703 9.6511C59.4932 9.6058 59.407 9.60133 59.3206 9.60133H58.8741V10.618H58.9992V10.1491H59.2296L59.5221 10.618H59.6709L59.3614 10.1491C59.5439 10.144 59.685 10.0703 59.685 9.87026ZM59.191 10.0511H58.9989V9.69162H59.2913C59.4186 9.69162 59.5581 9.71075 59.5581 9.86803C59.5584 10.0751 59.3347 10.0511 59.191 10.0511ZM53.8427 4.95489L55.7164 2.96902C55.8251 2.82323 55.8791 2.72115 55.8791 2.63374C55.8791 2.48795 55.7527 2.42957 55.3555 2.42957H54.8827V1.17585H60V2.42957H59.3276C58.5511 2.42957 58.4068 2.54601 57.3234 3.90182L54.3592 7.07921V9.01818C54.3592 9.51424 54.6115 9.68874 55.334 9.68874H56.4531V10.8984H49.2856V9.68874H50.4047C51.1266 9.68874 51.3795 9.51424 51.3795 9.01818V7.07921L47.8882 3.24561C47.3112 2.57536 47.391 2.42957 45.7846 2.42957V1.17585H52.2665V2.42957H51.805C51.3355 2.42957 51.1365 2.51698 51.1365 2.6918C51.1365 2.83791 51.2808 2.95435 51.3711 3.07079L53.1375 4.98169C53.3474 5.1983 53.6036 5.22637 53.8427 4.95489ZM10.3522 1.17553H11.9158V4.67384H10.4718C10.3438 3.97456 9.90288 3.70244 9.50082 3.33557C8.77542 2.67394 7.20444 2.123 5.88317 2.123C4.17784 2.123 2.73862 2.6481 2.73862 3.42011C2.73862 5.56325 12.4914 3.8578 12.4914 7.90992C12.4914 10.0234 10.4023 11.2041 6.65067 11.2041C5.3519 11.2041 3.38656 10.804 2.22696 10.1928C1.86346 9.98447 1.70919 10.3899 1.64105 10.8981H0.0379249V7.28306H1.48807C1.80786 8.2015 2.24849 8.39067 2.65377 8.75531C3.35699 9.39684 5.03083 9.86356 6.56582 9.84857C8.8802 9.82592 9.67598 9.32379 9.67598 8.59484C9.67598 7.86621 8.88888 7.69107 6.35273 7.29773L4.19937 6.94777C1.76929 6.58314 0 6.044 0 4.12003C0 2.123 2.23821 0.86927 5.77711 0.86927C7.26839 0.86927 8.51606 1.06706 9.71358 1.73891C10.0453 1.95296 10.3564 1.97849 10.3522 1.17553ZM40.8669 7.03263L40.8978 3.14448C40.8978 2.63438 40.6304 2.45956 39.8664 2.45956H38.9687V1.24985H44.68V2.45956H43.9356C43.171 2.45956 42.9036 2.6347 42.9036 3.14448V10.9721L40.6683 10.9546L33.4291 4.15033V9.09187C33.4291 9.58762 33.6965 9.77679 34.4605 9.77679H35.4543V10.9721H29.5229V9.77679H30.5057C31.2697 9.77679 31.5371 9.5873 31.5371 9.09187V3.14448C31.5371 2.63438 31.2697 2.45956 30.5057 2.45956H29.5229V1.24985H34.6511L40.8669 7.03263ZM21.7364 0.795898C17.1848 0.795898 14.3356 2.79325 14.3356 5.99966C14.3356 9.14865 17.1452 11.1307 21.5976 11.1307C26.3266 11.1307 29.0774 9.17768 29.0774 5.83951C29.0778 2.83695 26.1093 0.795898 21.7364 0.795898ZM21.6329 9.86292C19.1135 9.86292 17.6653 8.4197 17.6653 5.92693C17.6653 3.49285 19.1765 2.04963 21.7589 2.04963C24.2362 2.04963 25.6844 3.52219 25.6844 6.02933C25.6844 8.47808 24.215 9.86292 21.6329 9.86292Z" fill="black"/>
</svg>
